# File created by Blade
# Date/Time:  Wed Jan 21 18:40:15 2015
#---------------------------------------------------------
:version 1.10
:name HOM
:units
  mass 1.0
  length 1.000000
  angle deg
:documentation
     Acclaim Skeleton File
:root
   axis xyz
   order TX TY TZ RX RY RZ
   position 0.000000 0.000000 0.000000
   orientation 0 0 0
:bonedata
   begin
      id 1
      name RightUpLeg_dum
      direction -1.000000 0.000000 0.000000
      length 3.693983
      axis 0.0 0.0 0.0 xyz
   end
   begin
      id 2
      name LeftUpLeg_dum
      direction 1.000000 0.000000 0.000000
      length 3.693983
      axis 0.0 0.0 0.0 xyz
   end
   begin
      id 3
      name Spine_dum
      direction 0.000000 1.000000 0.000000
      length 2.392956
      axis 0.0 0.0 0.0 xyz
   end
   begin
      id 4
      name RightUpLeg
      direction 0.000000 -1.000000 0.000000
      length 15.795667
      axis 0.0 0.0 0.0 xyz
      dof rx ry rz
   end
   begin
      id 5
      name RightLeg
      direction 0.000000 -1.000000 0.000000
      length 14.766989
      axis 0.0 0.0 0.0 xyz
      dof rx ry rz
   end
   begin
      id 6
      name RightFoot
      direction 0.000000 -0.258819 0.965926
      length 4.962790
      axis 15.0 0.0 0.0 xyz
      dof rx ry rz
   end
   begin
      id 7
      name RightToeBase
      direction 0.000000 0.000000 1.000000
      length 2.952750
      axis 0.0 0.0 0.0 xyz
      dof rx ry rz
   end
   begin
      id 8
      name LeftUpLeg
      direction 0.000000 -1.000000 0.000000
      length 15.795667
      axis 0.0 0.0 0.0 xyz
      dof rx ry rz
   end
   begin
      id 9
      name LeftLeg
      direction 0.000000 -1.000000 0.000000
      length 14.766989
      axis 0.0 0.0 0.0 xyz
      dof rx ry rz
   end
   begin
      id 10
      name LeftFoot
      direction 0.000000 -0.258819 0.965926
      length 4.962790
      axis 15.0 0.0 0.0 xyz
      dof rx ry rz
   end
   begin
      id 11
      name LeftToeBase
      direction 0.000000 0.000000 1.000000
      length 2.952750
      axis 0.0 0.0 0.0 xyz
      dof rx ry rz
   end
   begin
      id 12
      name Spine
      direction 0.000000 1.000000 0.000000
      length 0.000000
      axis 0.0 0.0 0.0 xyz
      dof rx ry rz
   end
   begin
      id 13
      name Spine_dum1
      direction 0.000000 1.000000 0.000000
      length 13.207411
      axis 0.0 0.0 0.0 xyz
   end
   begin
      id 14
      name Spine_dum2
      direction 0.000000 1.000000 0.000000
      length 13.207411
      axis 0.0 0.0 0.0 xyz
   end
   begin
      id 15
      name Spine_dum3
      direction 0.000000 1.000000 0.000000
      length 19.250100
      axis 0.0 0.0 0.0 xyz
   end
   begin
      id 16
      name RightShoulder
      direction -1.000000 0.000000 0.000000
      length 8.140465
      axis 0.0 0.0 90.0 xyz
      dof rx ry rz
   end
   begin
      id 17
      name RightArm
      direction -1.000000 0.000000 0.000000
      length 10.649840
      axis 0.0 0.0 90.0 xyz
      dof rx ry rz
   end
   begin
      id 18
      name RightForeArm
      direction -1.000000 0.000000 0.000000
      length 8.304624
      axis 0.0 0.0 90.0 xyz
      dof ry rz rx
   end
   begin
      id 19
      name RightHand
      direction -1.000000 0.000000 0.000000
      length 0.000000
      axis 0.0 0.0 90.0 xyz
      dof rx ry rz
   end
   begin
      id 20
      name RightHand_dum1
      direction -1.000000 0.000000 0.000000
      length 3.937000
      axis 0.0 0.0 90.0 xyz
   end
   begin
      id 21
      name RightHand_dum2
      direction 0.000000 0.000000 0.000000
      length 0.000000
      axis 0.0 0.0 90.0 xyz
   end
   begin
      id 22
      name RightHandThumb1
      direction 0.000000 0.000000 1.000000
      length 3.937000
      axis 0.0 0.0 90.0 xyz
      dof rx rz ry
   end
   begin
      id 23
      name LeftShoulder
      direction 1.000000 0.000000 0.000000
      length 8.140465
      axis 0.0 0.0 -90.0 xyz
      dof rx ry rz
   end
   begin
      id 24
      name LeftArm
      direction 1.000000 0.000000 0.000000
      length 10.649840
      axis 0.0 0.0 -90.0 xyz
      dof rx ry rz
   end
   begin
      id 25
      name LeftForeArm
      direction 1.000000 0.000000 0.000000
      length 8.304624
      axis 0.0 0.0 -90.0 xyz
      dof ry rz rx
   end
   begin
      id 26
      name LeftHand
      direction 1.000000 0.000000 0.000000
      length 0.000000
      axis 0.0 0.0 -90.0 xyz
      dof rx ry rz
   end
   begin
      id 27
      name LeftHand_dum1
      direction 1.000000 0.000000 0.000000
      length 3.937000
      axis 0.0 0.0 -90.0 xyz
   end
   begin
      id 28
      name LeftHand_dum2
      direction 0.000000 0.000000 0.000000
      length 0.000000
      axis 0.0 0.0 -90.0 xyz
   end
   begin
      id 29
      name LeftHandThumb1
      direction 0.000000 0.000000 1.000000
      length 3.937000
      axis 0.0 0.0 -90.0 xyz
      dof rx rz ry
   end
   begin
      id 30
      name Head
      direction 0.000000 1.000000 0.000000
      length 4.527550
      axis 0.0 0.0 0.0 xyz
      dof rx ry rz
   end
:hierarchy
   begin
      root RightUpLeg_dum LeftUpLeg_dum Spine_dum
      RightUpLeg_dum RightUpLeg
      LeftUpLeg_dum LeftUpLeg
      Spine_dum Spine
      RightUpLeg RightLeg
      RightLeg RightFoot
      RightFoot RightToeBase
      LeftUpLeg LeftLeg
      LeftLeg LeftFoot
      LeftFoot LeftToeBase
      Spine Spine_dum1 Spine_dum2 Spine_dum3
      Spine_dum1 RightShoulder
      Spine_dum2 LeftShoulder
      Spine_dum3 Head
      RightShoulder RightArm
      RightArm RightForeArm
      RightForeArm RightHand
      RightHand RightHand_dum1 RightHand_dum2
      RightHand_dum2 RightHandThumb1
      LeftShoulder LeftArm
      LeftArm LeftForeArm
      LeftForeArm LeftHand
      LeftHand LeftHand_dum1 LeftHand_dum2
      LeftHand_dum2 LeftHandThumb1
   end

# File created by Blade
# Date/Time:  Wed Jan 21 18:40:08 2015
# Frame Rate: 120.000 fps
#------------------------------------------------------
:FULLY-SPECIFIED
:DEGREES
2350
root -3.010448 16.197765 -11.750896 71.024964 -7.513244 19.668789
RightUpLeg -187.806829 -36.751711 48.116689
RightLeg 111.192675 -0.000000 -0.000000
RightFoot -10.440248 41.363380 19.828268
RightToeBase 19.422245 -0.000000 -0.000000
LeftUpLeg -90.239056 41.389058 -25.342204
LeftLeg -6.215919 -0.000000 0.000000
LeftFoot 15.378000 -13.309186 -47.170286
LeftToeBase 7.347798 -0.000000 -0.000000
Spine -27.901413 17.937367 7.173066
RightShoulder 0.125544 29.037017 -22.987698
RightArm 1.325098 -1.307797 73.075256
RightForeArm 5.268326 -0.000000 8.654780
RightHand 41.302715 -0.000000 -62.990789
RightHandThumb1 -24.326973 -0.000000 -32.862282
LeftShoulder -12.658192 -1.978141 48.146448
LeftArm 30.524032 -16.237935 -34.054353
LeftForeArm 15.891952 0.000000 15.139999
LeftHand -19.015813 -0.000000 21.780823
LeftHandThumb1 -26.253704 0.000000 33.147579
Head -27.094370 -38.465425 39.107841
2351
root -3.003402 16.184691 -11.762303 71.020255 -7.654384 19.632476
RightUpLeg -187.812227 -36.627747 47.989795
RightLeg 111.183949 -0.000000 -0.000000
RightFoot -10.400457 41.340389 19.699832
RightToeBase 19.277798 -0.000000 -0.000000
LeftUpLeg -90.262580 41.492123 -25.477567
LeftLeg -6.261272 -0.000000 0.000000
LeftFoot 15.447576 -13.277286 -47.487943
LeftToeBase 7.388141 -0.000000 -0.000000
Spine -27.906331 17.886891 7.067537
RightShoulder 0.170957 29.035765 -22.954131
RightArm 1.369086 -1.302925 73.114579
RightForeArm 5.170782 -0.000000 8.744519
RightHand 41.236176 -0.000000 -62.675026
RightHandThumb1 -24.326973 -0.000000 -32.862282
LeftShoulder -12.673834 -1.842406 48.072804
LeftArm 30.531128 -16.361752 -34.185331
LeftForeArm 15.959467 -0.000000 15.109644
LeftHand -19.038507 -0.000000 21.769876
LeftHandThumb1 -26.253704 0.000000 33.147579
Head -26.793228 -38.341852 38.779282
2352
root -2.995927 16.169681 -11.773210 71.003740 -7.750304 19.577419
RightUpLeg -187.809793 -36.519325 47.914073
RightLeg 111.180797 -0.000000 -0.000000
RightFoot -10.308740 41.346096 19.742750
RightToeBase 19.398435 -0.000000 -0.000000
LeftUpLeg -90.247788 41.612452 -25.462367
LeftLeg -6.243777 -0.000000 0.000000
LeftFoot 15.467469 -13.216336 -47.871744
LeftToeBase 7.385244 -0.000000 -0.000000
Spine -27.894959 17.838189 7.027291
RightShoulder 0.215815 29.053965 -22.948484
RightArm 1.398452 -1.327386 73.170654
RightForeArm 5.076014 -0.000000 8.775129
RightHand 41.311442 -0.000000 -62.407607
RightHandThumb1 -24.326973 -0.000000 -32.862282
LeftShoulder -12.695809 -1.812452 48.024861
LeftArm 30.457930 -16.332997 -34.258831
LeftForeArm 15.927754 -0.000000 15.045053
LeftHand -19.010611 -0.000000 21.717314
LeftHandThumb1 -26.253704 0.000000 33.147579
Head -26.517492 -38.191658 38.437865
2353
root -2.988613 16.153113 -11.784488 71.003803 -7.865166 19.510979
RightUpLeg -187.800375 -36.389335 47.813040
RightLeg 111.177506 -0.000000 -0.000000
RightFoot -10.212357 41.360221 19.750103
RightToeBase 19.405829 -0.000000 -0.000000
LeftUpLeg -90.246244 41.746473 -25.453287
LeftLeg -6.225053 -0.000000 0.000000
LeftFoot 15.479058 -13.148344 -48.228066
LeftToeBase 7.357289 -0.000000 -0.000000
Spine -27.894757 17.821686 6.965723
RightShoulder 0.248140 29.097436 -22.983959
RightArm 1.346194 -1.189253 73.274320
RightForeArm 4.820785 -0.000000 8.916228
RightHand 41.268501 -0.000000 -62.178401
RightHandThumb1 -24.326973 -0.000000 -32.862282
LeftShoulder -12.729420 -1.726073 47.915695
LeftArm 30.386648 -16.399081 -34.314915
LeftForeArm 15.872546 -0.000000 15.107917
LeftHand -19.041383 0.000000 21.618081
LeftHandThumb1 -26.253704 0.000000 33.147579
Head -26.310080 -38.045610 38.134759
2354
root -2.981318 16.132637 -11.792920 70.976773 -7.975959 19.445532
RightUpLeg -187.791320 -36.281856 47.715453
RightLeg 111.189919 -0.000000 -0.000000
RightFoot -10.155769 41.365111 19.690183
RightToeBase 19.424730 -0.000000 -0.000000
LeftUpLeg -90.240142 41.901479 -25.454454
LeftLeg -6.197123 -0.000000 0.000000
LeftFoot 15.522525 -13.077836 -48.777741
LeftToeBase 7.525595 -0.000000 -0.000000
Spine -27.878883 17.785399 6.914122
RightShoulder 0.280864 29.143085 -22.994172
RightArm 1.305445 -1.145258 73.365113
RightForeArm 4.648596 -0.000000 9.059189
RightHand 41.149205 -0.000000 -61.950048
RightHandThumb1 -24.326973 -0.000000 -32.862282
LeftShoulder -12.770664 -1.736512 47.881902
LeftArm 30.313496 -16.507988 -34.500705
LeftForeArm 15.940987 -0.000000 15.064504
LeftHand -18.955048 0.000000 21.399896
LeftHandThumb1 -26.253704 0.000000 33.147579
Head -26.084854 -37.847228 37.819534
2355
root -2.973577 16.110896 -11.802013 70.962657 -8.082559 19.384604
RightUpLeg -187.806381 -36.169346 47.635342
RightLeg 111.211830 -0.000000 -0.000000
RightFoot -10.095962 41.366559 19.663487
RightToeBase 19.471244 -0.000000 -0.000000
LeftUpLeg -90.285970 42.041281 -25.499053
LeftLeg -6.144456 -0.000000 0.000000
LeftFoot 15.573190 -13.030138 -49.300843
LeftToeBase 7.660114 -0.000000 -0.000000
Spine -27.881243 17.750282 6.862049
RightShoulder 0.318093 29.187291 -23.016555
RightArm 1.258282 -1.047042 73.465940
RightForeArm 4.440169 0.000000 9.198364
RightHand 41.059659 0.000000 -61.731038
RightHandThumb1 -24.326973 -0.000000 -32.862282
LeftShoulder -12.801484 -1.678910 47.819298
LeftArm 30.224502 -16.592134 -34.604686
LeftForeArm 15.852613 -0.000000 15.101707
LeftHand -19.017065 -0.000000 21.237701
LeftHandThumb1 -26.253704 0.000000 33.147579
Head -25.940517 -37.694298 37.569564
2356
root -2.966096 16.088605 -11.810726 70.930138 -8.201669 19.324276
RightUpLeg -187.792870 -36.078616 47.518054
RightLeg 111.228446 -0.000000 -0.000000
RightFoot -10.062325 41.372957 19.541500
RightToeBase 19.302755 -0.000000 -0.000000
LeftUpLeg -90.343088 42.191537 -25.591344
LeftLeg -6.097820 -0.000000 0.000000
LeftFoot 15.666932 -12.978316 -49.840212
LeftToeBase 7.790222 -0.000000 -0.000000
Spine -27.864437 17.724077 6.801042
RightShoulder 0.348439 29.225016 -23.044344
RightArm 1.224400 -0.967419 73.572075
RightForeArm 4.236220 0.000000 9.310074
RightHand 40.956620 -0.000000 -61.568279
RightHandThumb1 -24.326973 -0.000000 -32.862282
LeftShoulder -12.839416 -1.671387 47.743092
LeftArm 30.137942 -16.666646 -34.696732
LeftForeArm 15.821834 -0.000000 15.112196
LeftHand -19.009360 -0.000000 21.091040
LeftHandThumb1 -26.253704 0.000000 33.147579
Head -25.805843 -37.527492 37.322375
